<?xml version="1.0" encoding="UTF-8"?>
<svg version="1.1" xmlns="http://www.w3.org/2000/svg" width="133" height="142">
<path d="M0 0 C43.89 0 87.78 0 133 0 C133 46.86 133 93.72 133 142 C89.11 142 45.22 142 0 142 C0 95.14 0 48.28 0 0 Z " fill="#FEFEFD" transform="translate(0,0)"/>
<path d="M0 0 C0.85486496 -0.00960754 1.70972992 -0.01921509 2.59049988 -0.02911377 C3.51236588 -0.03336365 4.43423187 -0.03761353 5.3840332 -0.04199219 C6.33744095 -0.04769226 7.29084869 -0.05339233 8.27314758 -0.05926514 C10.29308971 -0.06871439 12.31304725 -0.07524882 14.33300781 -0.07910156 C17.40563347 -0.08877532 20.47758106 -0.11978637 23.55004883 -0.15136719 C25.51553966 -0.15790075 27.48103527 -0.16314983 29.4465332 -0.16699219 C30.35827805 -0.17933899 31.27002289 -0.19168579 32.20939636 -0.20440674 C41.11179648 -0.17371964 47.49033085 2.19142519 54.0480957 8.33691406 C58.4799025 13.09473884 58.86616579 16.86201195 58.74731445 23.16113281 C48.3338852 23.1842564 37.92046202 23.20204798 27.50701237 23.21294498 C22.67214619 23.21817378 17.83729751 23.22527135 13.00244141 23.23657227 C8.34054326 23.24740128 3.67866199 23.25340968 -0.98324776 23.25601006 C-2.76592843 23.25786428 -4.54860814 23.26148484 -6.33128166 23.26686287 C-8.81934515 23.2740735 -11.30733798 23.27512375 -13.79541016 23.2746582 C-14.91210587 23.28005112 -14.91210587 23.28005112 -16.05136108 23.28555298 C-21.13863339 23.27518497 -21.13863339 23.27518497 -22.25268555 22.16113281 C-22.13143842 15.25004657 -20.1324673 11.06185784 -15.25268555 6.16113281 C-10.48736904 2.52870287 -6.08987714 0.05537848 0 0 Z " fill="#FFBE5B" transform="translate(49.252685546875,22.8388671875)"/>
<path d="M0 0 C27.06 0 54.12 0 82 0 C82 11.25 82 11.25 79 18 C76.35652976 17.54683367 74.08148874 17.03645549 71.625 15.9375 C68.17499759 14.70535628 65.6451359 14.61630148 62 15 C55.30260726 18.41435708 52.72669178 23.18327054 50 30 C43.73 30 37.46 30 31 30 C30.505 28.453125 30.01 26.90625 29.5 25.3125 C27.59046959 20.57229246 25.67306991 18.14508497 21.1484375 15.7734375 C17.45005754 14.44202072 14.93231346 14.49260472 11 15 C9.9275 15.53625 8.855 16.0725 7.75 16.625 C5 18 5 18 2.6875 17.375 C1 16 1 16 0 13 C0 8.71 0 4.42 0 0 Z " fill="#FFA935" transform="translate(27,71)"/>
<path d="M0 0 C1.11433914 0.00303635 1.11433914 0.00303635 2.25119019 0.00613403 C3.41942825 0.00350555 3.41942825 0.00350555 4.61126709 0.00082397 C7.19829505 -0.00359493 9.78525522 -0.00065643 12.37228394 0.00271606 C14.16207899 0.00204304 15.95187396 0.00107302 17.7416687 -0.00018311 C21.49778105 -0.00166013 25.25386966 0.00049462 29.00997925 0.00515747 C33.83578887 0.01085476 38.66154288 0.00757578 43.48735046 0.00158501 C47.18466616 -0.00202048 50.88196858 -0.00088208 54.57928467 0.0017128 C56.35917162 0.0023821 58.13905975 0.00155353 59.91894531 -0.00076675 C62.40212216 -0.00329309 64.88520768 0.00054702 67.36837769 0.00613403 C68.11127045 0.0041098 68.85416321 0.00208557 69.61956787 0 C74.69552132 0.02126595 74.69552132 0.02126595 75.80978394 1.13552856 C75.90887696 3.46712912 75.93948898 5.80182798 75.93478394 8.13552856 C75.93865112 10.05365356 75.93865112 10.05365356 75.94259644 12.01052856 C75.80978394 15.13552856 75.80978394 15.13552856 74.80978394 16.13552856 C72.28437392 16.23057107 69.78641267 16.26110014 67.26071167 16.24905396 C66.07543381 16.24927299 66.07543381 16.24927299 64.86621094 16.24949646 C62.24190572 16.24879713 59.61767058 16.24100384 56.99337769 16.23318481 C55.17876728 16.2313207 53.36415637 16.22989677 51.54954529 16.22889709 C46.76388164 16.22507136 41.97824814 16.2152406 37.19259644 16.20419312 C32.31304329 16.19398019 27.4334853 16.18939973 22.55392456 16.18435669 C12.97253107 16.17361838 3.39116001 16.15654129 -6.19021606 16.13552856 C-6.21706702 13.65629055 -6.23698154 11.17734017 -6.25271606 8.69802856 C-6.26528442 7.63745239 -6.26528442 7.63745239 -6.27810669 6.55545044 C-6.28675194 4.74859297 -6.24241618 2.94165254 -6.19021606 1.13552856 C-4.472982 -0.5817055 -2.2898944 0.00959362 0 0 Z " fill="#F1762F" transform="translate(33.190216064453125,49.864471435546875)"/>
<path d="M0 0 C4.45239996 0.36495082 6.382143 1.52034895 9.8125 4.3125 C12.16870437 7.84680656 12.30241613 9.14821287 11.8125 13.3125 C9.77256092 16.9703218 8.30830738 18.98196174 4.8125 21.3125 C-2.13427871 21.98476891 -2.13427871 21.98476891 -6.125 19.4375 C-9.50980986 15.95012014 -9.57349822 13.27663062 -9.55078125 8.57421875 C-8.9793883 5.01683683 -6.9362971 3.45790262 -4.1875 1.3125 C-3.1875 0.3125 -3.1875 0.3125 0 0 Z " fill="#F58F06" transform="translate(41.1875,89.6875)"/>
<path d="M0 0 C3.82223729 1.47173997 5.04102326 3.23577439 7.08984375 6.8046875 C7.70888175 10.27130031 7.89957049 12.4769738 6.02734375 15.546875 C4.25799119 17.74803383 2.63462291 19.53229792 0.08984375 20.8046875 C-6.9720325 21.38352982 -6.9720325 21.38352982 -10.84765625 18.9921875 C-13.94337091 15.70885377 -14.44961301 12.35959326 -14.375 7.8828125 C-13.61599038 4.489593 -11.78379144 2.8427237 -9.046875 0.81640625 C-5.85433618 -0.69523462 -3.43176552 -0.66875431 0 0 Z " fill="#F58F05" transform="translate(96.91015625,90.1953125)"/>
</svg>
