<?xml version="1.0" encoding="UTF-8"?>
<svg version="1.1" xmlns="http://www.w3.org/2000/svg" width="1110" height="337">
<path d="M0 0 C366.3 0 732.6 0 1110 0 C1110 111.21 1110 222.42 1110 337 C743.7 337 377.4 337 0 337 C0 225.79 0 114.58 0 0 Z " fill="#FEFEFD" transform="translate(0,0)"/>
<path d="M0 0 C4.31248609 -0.02886537 8.62494762 -0.04675255 12.9375 -0.0625 C14.16919922 -0.07087891 15.40089844 -0.07925781 16.66992188 -0.08789062 C17.83974609 -0.09111328 19.00957031 -0.09433594 20.21484375 -0.09765625 C21.84087524 -0.10551147 21.84087524 -0.10551147 23.49975586 -0.11352539 C26 0 26 0 27 1 C27.28752967 3.05636405 27.51577716 5.12107593 27.71875 7.1875 C27.84636719 8.44304687 27.97398437 9.69859375 28.10546875 10.9921875 C28.30390916 13.00022719 28.50082502 15.00841314 28.69775391 17.01660156 C28.88871141 18.94892094 29.08489877 20.88072125 29.28125 22.8125 C29.45237305 24.55466797 29.45237305 24.55466797 29.62695312 26.33203125 C29.71515751 28.91594954 29.71515751 28.91594954 31 30 C31.33523593 32.28569955 31.61589535 34.57942375 31.875 36.875 C32.64342824 43.39649946 33.54675453 49.8873754 34.5625 56.375 C34.68931152 57.20112793 34.81612305 58.02725586 34.94677734 58.87841797 C35.54695149 63.06432153 35.54695149 63.06432153 37 67 C37.15175549 68.59262066 37.24900325 70.19064856 37.31640625 71.7890625 C37.37924805 73.20058594 37.37924805 73.20058594 37.44335938 74.640625 C37.48267578 75.62546875 37.52199219 76.6103125 37.5625 77.625 C37.60568359 78.61757812 37.64886719 79.61015625 37.69335938 80.6328125 C37.79961069 83.08839838 37.90164964 85.54408703 38 88 C38.66 88 39.32 88 40 88 C39.95875 87.113125 39.9175 86.22625 39.875 85.3125 C40 82 40 82 40.94921875 79.796875 C42.29019591 76.22758263 42.58811367 72.70222167 42.9375 68.9375 C43.5805111 62.76235343 44.62964353 56.96483588 46.28515625 50.96875 C47.35254799 46.53586627 47.80974017 42.05044872 48.27734375 37.51953125 C48.89204141 34.52578753 49.59290717 32.58579228 50.89453125 29.890625 C53.58670532 24.13508962 54.60922708 18.1543537 55.75 11.9375 C56.08064453 10.20983398 56.08064453 10.20983398 56.41796875 8.44726562 C56.95509217 5.63320597 57.48217645 2.81766331 58 0 C61.45826342 -0.05789006 64.91640293 -0.09355821 68.375 -0.125 C69.35984375 -0.14175781 70.3446875 -0.15851563 71.359375 -0.17578125 C72.30039062 -0.18222656 73.24140625 -0.18867188 74.2109375 -0.1953125 C75.51490479 -0.21102295 75.51490479 -0.21102295 76.84521484 -0.22705078 C79 0 79 0 81 2 C81.74825357 4.85563958 82.40529462 7.6749266 83 10.5625 C83.165 11.33658203 83.33 12.11066406 83.5 12.90820312 C83.83471122 14.47846946 84.16688543 16.04927861 84.49658203 17.62060547 C85.48998902 22.31592289 86.52674081 27.00179452 87.6328125 31.671875 C88.54380722 35.51829716 89.25708762 39.01514191 89 43 C89.66 43 90.32 43 91 43 C91.08564209 43.63091553 91.17128418 44.26183105 91.25952148 44.91186523 C91.64783714 47.75435681 92.04258081 50.59591869 92.4375 53.4375 C92.57220703 54.43072266 92.70691406 55.42394531 92.84570312 56.44726562 C92.97783203 57.39150391 93.10996094 58.33574219 93.24609375 59.30859375 C93.36654053 60.18314209 93.4869873 61.05769043 93.61108398 61.95874023 C93.79922202 63.98664505 93.79922202 63.98664505 95 65 C95.04092937 67.33297433 95.04241723 69.66705225 95 72 C95.66 72 96.32 72 97 72 C97.66 76.29 98.32 80.58 99 85 C99.185625 82.3703125 99.185625 82.3703125 99.375 79.6875 C99.65535474 75.71580783 100.18252728 71.86906843 100.91796875 67.9609375 C102.1630194 61.31708961 103.04708652 54.63661187 103.9375 47.9375 C105.15339648 38.90748777 106.47291979 29.9205602 108.06176758 20.94921875 C109.05591132 15.14180301 109.50604991 9.40996257 109.7890625 3.52734375 C110 1 110 1 111 0 C112.85369611 -0.08737645 114.71067541 -0.10698153 116.56640625 -0.09765625 C117.69111328 -0.09443359 118.81582031 -0.09121094 119.97460938 -0.08789062 C121.15861328 -0.07951172 122.34261719 -0.07113281 123.5625 -0.0625 C124.75037109 -0.05798828 125.93824219 -0.05347656 127.16210938 -0.04882812 C130.10812226 -0.03699675 133.05403681 -0.02051287 136 0 C135.44072963 9.00389816 133.83226123 17.73485059 132.0625 26.5625 C131.79441257 27.92112356 131.52683201 29.27984724 131.25976562 30.63867188 C130.3243514 35.38597841 129.38875234 40.13309948 128.40234375 44.87011719 C127.28228796 50.27187878 126.46813082 55.64097079 125.875 61.125 C125.74544922 62.27355469 125.74544922 62.27355469 125.61328125 63.4453125 C125.40502844 65.29644861 125.20194028 67.14816463 125 69 C124.34 69 123.68 69 123 69 C123.061875 70.051875 123.12375 71.10375 123.1875 72.1875 C123.19835497 78.30970553 121.4825111 84.09916763 120 90 C118.12647375 97.64704592 117.12505426 105.12462018 116 113 C105.44 113 94.88 113 84 113 C84 110.69 84 108.38 84 106 C83.34 106 82.68 106 82 106 C81.87882813 105.11957031 81.75765625 104.23914063 81.6328125 103.33203125 C81.46523438 102.17058594 81.29765625 101.00914062 81.125 99.8125 C80.96257812 98.66394531 80.80015625 97.51539063 80.6328125 96.33203125 C80.05713661 93.30084893 79.15175065 90.84098493 78 88 C77.92353835 85.6679198 77.90856701 83.33154122 78 81 C77.34 81 76.68 81 76 81 C75.91959473 80.43079834 75.83918945 79.86159668 75.75634766 79.27514648 C75.38427099 76.66185196 75.00469066 74.04969869 74.625 71.4375 C74.43550781 70.09461914 74.43550781 70.09461914 74.2421875 68.72460938 C73.49920891 63.6537805 72.4731466 58.90435055 71 54 C69.94039069 48.0222041 69.90389672 42.05450672 70 36 C68.68 36 67.36 36 66 36 C66.01160156 36.6290625 66.02320313 37.258125 66.03515625 37.90625 C66.09286873 43.38069088 65.80228473 48.58457806 65 54 C64.34 54 63.68 54 63 54 C63.02964844 55.08410156 63.05929687 56.16820312 63.08984375 57.28515625 C63.08864247 62.73536672 62.32606422 68.04993295 61.5625 73.4375 C61.42779297 74.44232422 61.29308594 75.44714844 61.15429688 76.48242188 C60.13037799 83.86962201 60.13037799 83.86962201 59 85 C58.36949769 88.82859235 57.80895286 92.66007062 57.28125 96.50390625 C57.16007813 97.32761719 57.03890625 98.15132813 56.9140625 99 C56.8104541 99.7425 56.7068457 100.485 56.60009766 101.25 C55.72674795 105.25220142 54.29539013 109.11382961 53 113 C42.44 113 31.88 113 21 113 C20.34 109.37 19.68 105.74 19 102 C18.19353349 98.14241067 18.19353349 98.14241067 17.3671875 94.2890625 C16.97187595 91.82467346 16.93836725 89.49172405 17 87 C16.34 87 15.68 87 15 87 C14.86722656 86.21753906 14.73445312 85.43507813 14.59765625 84.62890625 C14.42105469 83.61699219 14.24445312 82.60507813 14.0625 81.5625 C13.88847656 80.55316406 13.71445312 79.54382813 13.53515625 78.50390625 C13.25248903 76.0712562 13.25248903 76.0712562 12 75 C11.70008263 72.97927612 11.46030062 70.94956685 11.24609375 68.91796875 C11.11396484 67.67595703 10.98183594 66.43394531 10.84570312 65.15429688 C10.71099609 63.84525391 10.57628906 62.53621094 10.4375 61.1875 C10.29892578 59.89005859 10.16035156 58.59261719 10.01757812 57.25585938 C9 47.56631004 9 47.56631004 9 43 C8.34 43 7.68 43 7 43 C5.38957095 35.58044948 4.28773448 28.15971623 3.375 20.625 C3.2409375 19.55894531 3.106875 18.49289063 2.96875 17.39453125 C2.45354992 13.21510204 2 9.21756789 2 5 C1.34 5 0.68 5 0 5 C0 3.35 0 1.7 0 0 Z " fill="#FFB413" transform="translate(599,143)"/>
<path d="M0 0 C1.12426392 -0.0009668 1.12426392 -0.0009668 2.27124023 -0.00195312 C5.47427321 0.02992866 8.06687973 0.16812658 11.125 1.1875 C13.63554905 1.3404647 16.12388525 1.44445178 18.63671875 1.50390625 C19.72905571 1.5350779 19.72905571 1.5350779 20.84346008 1.56687927 C23.16637875 1.63218746 25.48940906 1.69117237 27.8125 1.75 C29.38868335 1.79320305 30.96485548 1.83681792 32.54101562 1.88085938 C36.40223104 1.98862368 40.263533 2.08783556 44.125 2.1875 C44.125 8.4575 44.125 14.7275 44.125 21.1875 C39.835 21.1875 35.545 21.1875 31.125 21.1875 C31.125 22.1775 31.125 23.1675 31.125 24.1875 C31.785 24.1875 32.445 24.1875 33.125 24.1875 C33.49634975 33.8563471 33.67555051 42.02306289 28.0625 50.1875 C26.125 52.1875 26.125 52.1875 24.125 53.1875 C23.795 54.1775 23.465 55.1675 23.125 56.1875 C21.48828125 57.3203125 21.48828125 57.3203125 19.4375 58.3125 C18.77363281 58.64507812 18.10976563 58.97765625 17.42578125 59.3203125 C11.38387328 61.59756813 5.22726 61.27903112 -1.125 61.1875 C-2.92181553 61.16204936 -4.71870043 61.14099636 -6.515625 61.125 C-7.30485352 61.11339844 -8.09408203 61.10179687 -8.90722656 61.08984375 C-10.95352055 61.05912277 -10.95352055 61.05912277 -12.875 62.1875 C-12.875 65.1575 -12.875 68.1275 -12.875 71.1875 C-11.25658203 71.22508423 -11.25658203 71.22508423 -9.60546875 71.26342773 C-5.57232383 71.35816051 -1.53932497 71.45821576 2.49365234 71.55981445 C4.23352625 71.6029158 5.97343573 71.64460637 7.71337891 71.68481445 C10.22569465 71.74312321 12.73783534 71.80663722 15.25 71.87109375 C16.01803955 71.88780624 16.7860791 71.90451874 17.57739258 71.92173767 C33.54047503 72.35189557 33.54047503 72.35189557 40.05078125 79.21875 C44.82001139 85.10621646 45.99641924 89.73358778 45.5546875 97.26953125 C45.03457976 100.8015356 44.14094156 103.23558558 42.125 106.1875 C41.50625 107.21875 40.8875 108.25 40.25 109.3125 C38.10072012 112.22034924 36.03957706 114.07443163 33.125 116.1875 C32.52429688 116.67476563 31.92359375 117.16203125 31.3046875 117.6640625 C25.88354125 121.45303569 18.74580939 123.90326318 12.125 123.1875 C12.125 123.8475 12.125 124.5075 12.125 125.1875 C8.17822029 125.28757438 4.23194795 125.35952516 0.28417969 125.40722656 C-1.70664478 125.43685477 -3.69711708 125.48772326 -5.6875 125.5390625 C-17.8265177 125.66167884 -26.61427179 122.89171903 -35.6875 114.625 C-39.08634831 110.83771188 -38.99027329 107.90791588 -38.9375 103 C-38.92396484 101.36998047 -38.92396484 101.36998047 -38.91015625 99.70703125 C-38.89855469 98.87558594 -38.88695312 98.04414063 -38.875 97.1875 C-38.215 97.1875 -37.555 97.1875 -36.875 97.1875 C-36.6275 96.259375 -36.38 95.33125 -36.125 94.375 C-34.79122403 90.97387127 -33.97550754 89.97264071 -30.875 88.1875 C-29.39 87.6925 -29.39 87.6925 -27.875 87.1875 C-28.25121782 83.92694556 -29.03998036 83.02251964 -31.4375 80.625 C-34.6099965 77.00191704 -34.46210719 73.53085811 -34.234375 68.875 C-33.46175886 63.09717494 -31.35702569 59.05131525 -26.875 55.1875 C-29.77424258 48.69433885 -29.77424258 48.69433885 -34.875 44.1875 C-38.25589925 33.85697451 -37.52585874 24.67046579 -32.7734375 14.9296875 C-32.47695313 14.35476562 -32.18046875 13.77984375 -31.875 13.1875 C-31.215 13.1875 -30.555 13.1875 -29.875 13.1875 C-29.545 12.1975 -29.215 11.2075 -28.875 10.1875 C-28.215 10.1875 -27.555 10.1875 -26.875 10.1875 C-26.875 9.5275 -26.875 8.8675 -26.875 8.1875 C-21.58088235 4.1875 -21.58088235 4.1875 -17.875 4.1875 C-17.875 3.5275 -17.875 2.8675 -17.875 2.1875 C-11.84058565 0.43203401 -6.24478252 -0.00528379 0 0 Z " fill="#FFB515" transform="translate(862.875,167.8125)"/>
<path d="M0 0 C8.58 0 17.16 0 26 0 C26 39.93 26 79.86 26 121 C19.07 121 12.14 121 5 121 C3 118 3 118 3 114 C2.03578125 114.56589844 1.0715625 115.13179688 0.078125 115.71484375 C-1.19776699 116.45598689 -2.47381699 117.19685807 -3.75 117.9375 C-4.38421875 118.31068359 -5.0184375 118.68386719 -5.671875 119.06835938 C-14.4688969 124.15413766 -24.26614916 124.26169258 -34.046875 121.67578125 C-40.84328556 119.3242232 -45.32977535 113.99571135 -49 108 C-49.69921875 105.21484375 -49.69921875 105.21484375 -50 103 C-50.66 103 -51.32 103 -52 103 C-56.57537761 95.04282155 -56.16079651 86.67526215 -56.125 77.75 C-56.12886719 76.7703125 -56.13273437 75.790625 -56.13671875 74.78125 C-56.13542969 73.83765625 -56.13414062 72.8940625 -56.1328125 71.921875 C-56.13168457 71.07206055 -56.13055664 70.22224609 -56.12939453 69.34667969 C-56.00549489 67.09965443 -55.62630466 65.15568217 -55 63 C-54.34 63 -53.68 63 -53 63 C-52.67 60.03 -52.34 57.06 -52 54 C-51.34 54 -50.68 54 -50 54 C-49.690625 52.7315625 -49.690625 52.7315625 -49.375 51.4375 C-46.79151182 44.97877956 -42.14595098 40.26111685 -36 37 C-32.125 36.25 -32.125 36.25 -29 36 C-29 35.34 -29 34.68 -29 34 C-16.83523785 32.38738023 -8.85910796 33.73539414 1 41 C0.75552124 39.2675 0.75552124 39.2675 0.50610352 37.5 C-0.01346927 33.32829623 -0.12951385 29.20060294 -0.09765625 25 C-0.0962413 24.2788501 -0.09482635 23.5577002 -0.09336853 22.81469727 C-0.08783381 20.54308676 -0.07529423 18.27158 -0.0625 16 C-0.05747654 14.44661602 -0.05291512 12.89323048 -0.04882812 11.33984375 C-0.0387427 7.55982507 -0.01915554 3.78002673 0 0 Z " fill="#F1732A" transform="translate(564,135)"/>
<path d="M0 0 C3.3728361 3.15891415 5.47270666 6.32481415 7.4375 10.5 C7.4375 11.16 7.4375 11.82 7.4375 12.5 C8.0975 12.5 8.7575 12.5 9.4375 12.5 C9.9325 16.955 9.9325 16.955 10.4375 21.5 C11.0975 21.5 11.7575 21.5 12.4375 21.5 C12.52559201 25.31235104 12.5782549 29.12443553 12.625 32.9375 C12.65013672 34.00677734 12.67527344 35.07605469 12.70117188 36.17773438 C12.76252682 42.86542326 12.0641193 48.32581597 9.4375 54.5 C8.7775 54.5 8.1175 54.5 7.4375 54.5 C7.1075 56.15 6.7775 57.8 6.4375 59.5 C5.7775 59.5 5.1175 59.5 4.4375 59.5 C3.9425 61.48 3.9425 61.48 3.4375 63.5 C2.7775 63.5 2.1175 63.5 1.4375 63.5 C1.210625 64.0775 0.98375 64.655 0.75 65.25 C-2.40401702 70.65688631 -8.12509406 72.92723138 -13.5625 75.5 C-14.25214844 75.85578125 -14.94179688 76.2115625 -15.65234375 76.578125 C-24.22818599 80.71697729 -37.7253138 79.310681 -46.5625 76.5 C-58.35205138 71.10587649 -64.50944792 61.62904212 -69.65234375 50.10546875 C-73.36062584 39.48991444 -72.87497038 25.1849155 -69.5625 14.5 C-64.27643458 3.74214253 -56.42639409 -4.39429602 -45.5625 -9.5 C-29.22927108 -14.88429786 -13.03760129 -10.79142279 0 0 Z " fill="#F1762E" transform="translate(395.5625,179.5)"/>
<path d="M0 0 C0 0.66 0 1.32 0 2 C0.721875 2.268125 1.44375 2.53625 2.1875 2.8125 C9.21406731 5.77927286 12.61435007 9.8840316 17 16 C17.598125 16.825 18.19625 17.65 18.8125 18.5 C22.02435941 25.26180928 22.33140718 32.56767301 22.25 39.9375 C22.24395752 40.81559326 22.23791504 41.69368652 22.23168945 42.59838867 C22.095639 51.4746498 20.84151563 58.96774004 17 67 C16.34 67 15.68 67 15 67 C14.34 68.65 13.68 70.3 13 72 C12.34 72 11.68 72 11 72 C10.505 73.485 10.505 73.485 10 75 C9.34 75 8.68 75 8 75 C7.505 76.485 7.505 76.485 7 78 C4.33916031 79.99396257 1.38757675 82 -2 82 C-2 82.66 -2 83.32 -2 84 C-4.64 84.33 -7.28 84.66 -10 85 C-10 85.66 -10 86.32 -10 87 C-12.83439137 87.10901505 -15.66450203 87.18777904 -18.5 87.25 C-19.29148437 87.28351563 -20.08296875 87.31703125 -20.8984375 87.3515625 C-26.95596582 87.45086624 -30.80809599 85.99787798 -36 83 C-36.886875 82.61457031 -37.77375 82.22914063 -38.6875 81.83203125 C-45.23327209 78.94614186 -50.04950057 75.02373804 -54 69 C-54.71484375 66.21875 -54.71484375 66.21875 -55 64 C-55.66 64 -56.32 64 -57 64 C-61.89350745 49.18840154 -64.00790603 33.53814047 -57 19 C-53.53772992 12.48519594 -48.14674826 4.57809703 -40.7578125 2.3125 C-40.17773438 2.209375 -39.59765625 2.10625 -39 2 C-39 1.34 -39 0.68 -39 0 C-27.77599024 -5.16304449 -10.82351269 -7.21567513 0 0 Z " fill="#F1752D" transform="translate(477,172)"/>
<path d="M0 0 C1.27881042 -0.00563965 2.55762085 -0.0112793 3.87518311 -0.01708984 C5.3004156 -0.01320087 6.72564754 -0.00910451 8.15087891 -0.00482178 C9.64544852 -0.00753055 11.14001679 -0.01109084 12.63458252 -0.01544189 C16.70061752 -0.02458171 20.76655136 -0.02101512 24.8325882 -0.01468372 C29.08110331 -0.00963194 33.32960956 -0.01431288 37.578125 -0.01745605 C44.7137203 -0.02109811 51.84927425 -0.01629035 58.98486328 -0.0067749 C67.24302421 0.00411011 75.50108639 0.0005847 83.75924492 -0.01042771 C90.84037053 -0.0194938 97.92146636 -0.0207892 105.0025959 -0.01555037 C109.23585759 -0.01242693 113.46907281 -0.01203156 117.70233154 -0.01862335 C121.68153268 -0.02438635 125.6606061 -0.02041924 129.6397934 -0.00883484 C131.10315488 -0.00618263 132.56652706 -0.00696287 134.02988434 -0.01136017 C136.02154668 -0.01679473 138.01323242 -0.00878333 140.00488281 0 C141.12134186 0.00075405 142.2378009 0.0015081 143.38809204 0.002285 C146.00244141 0.25396729 146.00244141 0.25396729 148.00244141 2.25396729 C148.14761884 5.16332308 148.18874936 7.97391329 148.12744141 10.87896729 C148.11841797 11.68076416 148.10939453 12.48256104 148.10009766 13.30865479 C148.07650364 15.29055251 148.04063205 17.27229709 148.00244141 19.25396729 C147.34244141 19.25396729 146.68244141 19.25396729 146.00244141 19.25396729 C145.67244141 22.88396729 145.34244141 26.51396729 145.00244141 30.25396729 C144.34244141 30.25396729 143.68244141 30.25396729 143.00244141 30.25396729 C142.34244141 31.90396729 141.68244141 33.55396729 141.00244141 35.25396729 C139.35244141 35.25396729 137.70244141 35.25396729 136.00244141 35.25396729 C136.00244141 34.59396729 136.00244141 33.93396729 136.00244141 33.25396729 C135.34244141 33.25396729 134.68244141 33.25396729 134.00244141 33.25396729 C134.00244141 32.59396729 134.00244141 31.93396729 134.00244141 31.25396729 C132.35244141 30.92396729 130.70244141 30.59396729 129.00244141 30.25396729 C129.00244141 29.59396729 129.00244141 28.93396729 129.00244141 28.25396729 C115.18440287 27.65572102 115.18440287 27.65572102 102.00244141 31.25396729 C102.00244141 31.91396729 102.00244141 32.57396729 102.00244141 33.25396729 C101.09494141 33.76959229 100.18744141 34.28521729 99.25244141 34.81646729 C92.9222948 38.85286665 91.4996338 47.46524846 89.61572266 54.28521729 C89.00244141 56.25396729 89.00244141 56.25396729 88.00244141 57.25396729 C85.35960241 57.37971696 82.74429326 57.44261135 80.10009766 57.45709229 C79.30719833 57.46279236 78.51429901 57.46849243 77.69737244 57.47436523 C76.01693055 57.48382826 74.33646999 57.49035437 72.65600586 57.49420166 C70.07909964 57.50391392 67.50298855 57.53492669 64.92626953 57.56646729 C63.296717 57.57299635 61.66715873 57.5782472 60.03759766 57.58209229 C58.87660301 57.60061249 58.87660301 57.60061249 57.69215393 57.61950684 C55.51831055 57.6104126 55.51831055 57.6104126 52.00244141 57.25396729 C49.89199758 54.08830155 49.24692064 51.74199313 48.37744141 48.06646729 C48.11705078 46.9797876 47.85666016 45.89310791 47.58837891 44.77349854 C47.39501953 43.94205322 47.20166016 43.11060791 47.00244141 42.25396729 C46.34244141 42.25396729 45.68244141 42.25396729 45.00244141 42.25396729 C44.48681641 41.38771729 43.97119141 40.52146729 43.43994141 39.62896729 C40.66935791 35.21694376 36.42031665 32.83624648 32.00244141 30.25396729 C31.37466797 29.87498291 30.74689453 29.49599854 30.10009766 29.10552979 C22.41932005 25.98744875 13.42210036 28.30699053 6.04931641 31.18365479 C3.84435199 32.08232937 3.84435199 32.08232937 3.00244141 34.25396729 C1.02244141 34.25396729 -0.95755859 34.25396729 -2.99755859 34.25396729 C-3.32755859 32.93396729 -3.65755859 31.61396729 -3.99755859 30.25396729 C-4.65755859 30.25396729 -5.31755859 30.25396729 -5.99755859 30.25396729 C-7.83255817 24.00623064 -8.3047789 18.37347183 -8.24755859 11.87896729 C-8.25529297 10.9779126 -8.26302734 10.07685791 -8.27099609 9.14849854 C-8.26841797 8.28869385 -8.26583984 7.42888916 -8.26318359 6.54302979 C-8.26092773 5.76653076 -8.25867187 4.99003174 -8.25634766 4.19000244 C-7.61206718 -0.62994491 -3.95914929 0.00267399 0 0 Z " fill="#FFA936" transform="translate(22.99755859375,198.74603271484375)"/>
<path d="M0 0 C0.78130783 -0.00014603 1.56261566 -0.00029205 2.36759949 -0.0004425 C4.92681747 0.00024912 7.48596089 0.00800612 10.04516602 0.01586914 C11.82878072 0.01773599 13.61239595 0.01915863 15.39601135 0.02015686 C20.07308385 0.02396104 24.75012491 0.03377326 29.42718506 0.04486084 C34.2067421 0.05512023 38.98630425 0.05966416 43.76586914 0.06469727 C53.13111727 0.07539753 62.49634214 0.09244857 71.86157227 0.11352539 C71.86157227 0.77352539 71.86157227 1.43352539 71.86157227 2.11352539 C72.44422852 2.10450195 73.02688477 2.09547852 73.62719727 2.08618164 C84.43858148 2.47715937 93.30468594 8.72456987 100.86157227 16.11352539 C101.19157227 17.10352539 101.52157227 18.09352539 101.86157227 19.11352539 C102.85747116 20.11760975 103.85784328 21.11726833 104.86157227 22.11352539 C108.83255175 28.48834195 109.66873856 34.70347415 108.86157227 42.11352539 C107.86157227 43.11352539 107.86157227 43.11352539 105.3646841 43.23657322 C104.24470563 43.23565143 103.12472715 43.23472963 101.97080994 43.23377991 C100.05032082 43.2358419 100.05032082 43.2358419 98.09103394 43.23794556 C96.65899635 43.23440594 95.226959 43.23077112 93.79492188 43.22705078 C92.29725649 43.22676892 90.79959096 43.22692663 89.30192566 43.22749329 C85.22359055 43.2277813 81.14528459 43.22188403 77.06695628 43.21491933 C72.80949598 43.20868634 68.55203508 43.20808204 64.29457092 43.20689392 C56.2268404 43.20378044 48.15912335 43.19556683 40.09139878 43.18554443 C30.90896447 43.17438381 21.72652954 43.16887297 12.54409015 43.163849 C-6.35009013 43.15338423 -25.24425785 43.13578447 -44.13842773 43.11352539 C-44.88940144 38.43523731 -45.15930923 34.76420777 -44.13842773 30.11352539 C-43.47842773 30.11352539 -42.81842773 30.11352539 -42.13842773 30.11352539 C-42.04045898 29.5218457 -41.94249023 28.93016602 -41.84155273 28.32055664 C-40.89104153 23.29759656 -39.93779469 19.79416213 -36.13842773 16.11352539 C-35.47842773 16.11352539 -34.81842773 16.11352539 -34.13842773 16.11352539 C-33.80842773 15.12352539 -33.47842773 14.13352539 -33.13842773 13.11352539 C-28.2505622 8.58581837 -22.04521548 3.11352539 -15.13842773 3.11352539 C-15.13842773 2.45352539 -15.13842773 1.79352539 -15.13842773 1.11352539 C-10.06248657 0.27712827 -5.14728793 -0.02559984 0 0 Z " fill="#FFBA52" transform="translate(60.138427734375,107.886474609375)"/>
<path d="M0 0 C4.03170032 3.67158728 6.20756724 7.69064484 7.8125 12.875 C7.8125 13.535 7.8125 14.195 7.8125 14.875 C8.4725 14.875 9.1325 14.875 9.8125 14.875 C9.8125 36.325 9.8125 57.775 9.8125 79.875 C2.8825 79.875 -4.0475 79.875 -11.1875 79.875 C-11.8475 77.565 -12.5075 75.255 -13.1875 72.875 C-13.8475 73.535 -14.5075 74.195 -15.1875 74.875 C-16.88036284 75.60525456 -18.57607085 76.33001799 -20.2890625 77.01171875 C-22.47564926 77.93261868 -22.47564926 77.93261868 -25.25 80.0625 C-31.7764695 83.90766601 -41.0929008 82.4437285 -48.25 81.125 C-53.59856687 79.68881075 -56.65247911 76.9990448 -59.5 72.3125 C-61.1875 68.875 -61.1875 68.875 -61.1875 65.875 C-61.8475 65.875 -62.5075 65.875 -63.1875 65.875 C-65.25391756 58.12593416 -65.06559785 49.98484606 -61.1875 42.875 C-59.3125 40.6875 -59.3125 40.6875 -57.1875 38.875 C-56.48625 38.05 -55.785 37.225 -55.0625 36.375 C-51.13045564 32.955831 -45.55526939 29.875 -40.1875 29.875 C-40.1875 29.215 -40.1875 28.555 -40.1875 27.875 C-36.93823335 27.37015526 -33.68797901 26.87197406 -30.4375 26.375 C-29.51710938 26.23191406 -28.59671875 26.08882812 -27.6484375 25.94140625 C-26.75898437 25.80605469 -25.86953125 25.67070312 -24.953125 25.53125 C-24.13618164 25.40556641 -23.31923828 25.27988281 -22.47753906 25.15039062 C-20.1875 24.875 -20.1875 24.875 -16.1875 24.875 C-16.455625 23.616875 -16.72375 22.35875 -17 21.0625 C-17.15082031 20.35480469 -17.30164063 19.64710938 -17.45703125 18.91796875 C-18.36448766 16.38000244 -18.92662528 15.38224982 -21.1875 13.875 C-23.81284991 13.54422379 -26.12769819 13.40120098 -28.75 13.4375 C-29.82374878 13.44233398 -29.82374878 13.44233398 -30.91918945 13.44726562 C-36.16914619 13.58450393 -40.35831289 14.58760055 -45.07421875 17 C-47.70329308 18.08856312 -49.37069993 18.33092437 -52.1875 17.875 C-53.98828125 16.01171875 -53.98828125 16.01171875 -55.5 13.5625 C-56.26763672 12.36173828 -56.26763672 12.36173828 -57.05078125 11.13671875 C-58.1875 8.875 -58.1875 8.875 -58.1875 5.875 C-58.8475 5.875 -59.5075 5.875 -60.1875 5.875 C-59.8575 4.555 -59.5275 3.235 -59.1875 1.875 C-58.5275 1.875 -57.8675 1.875 -57.1875 1.875 C-57.1875 1.215 -57.1875 0.555 -57.1875 -0.125 C-56.50042969 -0.31835938 -55.81335938 -0.51171875 -55.10546875 -0.7109375 C-54.20441406 -0.97132813 -53.30335938 -1.23171875 -52.375 -1.5 C-51.48167969 -1.75523437 -50.58835937 -2.01046875 -49.66796875 -2.2734375 C-46.98282104 -3.07766661 -46.98282104 -3.07766661 -44.1875 -5.125 C-42.8675 -5.125 -41.5475 -5.125 -40.1875 -5.125 C-40.1875 -5.785 -40.1875 -6.445 -40.1875 -7.125 C-26.32484239 -9.76550621 -11.38522606 -9.11238981 0 0 Z " fill="#FFB515" transform="translate(802.1875,176.125)"/>
<path d="M0 0 C1.18722656 -0.00257813 2.37445312 -0.00515625 3.59765625 -0.0078125 C6.51184445 0.10807335 9.10835017 0.45113823 11.9375 1.125 C11.9375 1.785 11.9375 2.445 11.9375 3.125 C12.81792969 3.20105469 13.69835937 3.27710938 14.60546875 3.35546875 C18.56595814 4.27014215 20.28873658 5.691928 23.25 8.4375 C24.11238281 9.21738281 24.97476563 9.99726563 25.86328125 10.80078125 C27.86848523 13.04766706 28.58144784 14.18924917 28.9375 17.125 C29.5975 17.125 30.2575 17.125 30.9375 17.125 C35.540338 29.35128845 34.9375 38.24411939 34.9375 52.125 C18.1075 52.125 1.2775 52.125 -16.0625 52.125 C-15.7325 55.095 -15.4025 58.065 -15.0625 61.125 C-14.4025 61.125 -13.7425 61.125 -13.0625 61.125 C-13.0625 61.785 -13.0625 62.445 -13.0625 63.125 C-12.4025 63.125 -11.7425 63.125 -11.0625 63.125 C-9.37433067 64.76988294 -7.70896685 66.43837542 -6.0625 68.125 C-0.80840688 71.62772874 5.82302703 70.65348711 11.9375 70.125 C14.79677012 69.29778978 17.31644944 68.30673905 19.984375 67 C21.9375 66.125 21.9375 66.125 24.9375 66.125 C24.9375 66.785 24.9375 67.445 24.9375 68.125 C25.5975 68.125 26.2575 68.125 26.9375 68.125 C27.82903961 70.22221231 28.70028219 72.32806339 29.5625 74.4375 C30.04976562 75.60925781 30.53703125 76.78101563 31.0390625 77.98828125 C31.33554687 79.02339844 31.63203125 80.05851562 31.9375 81.125 C29.9375 84.125 29.9375 84.125 27.5546875 84.85546875 C26.64976562 85.00628906 25.74484375 85.15710938 24.8125 85.3125 C23.90242187 85.47105469 22.99234375 85.62960938 22.0546875 85.79296875 C21.35601563 85.90253906 20.65734375 86.01210937 19.9375 86.125 C19.9375 86.785 19.9375 87.445 19.9375 88.125 C12.32901457 92.88030339 -0.36302275 92.07223706 -8.8359375 90.6640625 C-18.84440852 87.98040308 -29.17305867 81.7488248 -35.0625 73.125 C-35.8125 70.3125 -35.8125 70.3125 -36.0625 68.125 C-36.7225 68.125 -37.3825 68.125 -38.0625 68.125 C-41.39827009 56.70792977 -44.62165567 38.24331133 -39.0625 27.125 C-38.4025 27.125 -37.7425 27.125 -37.0625 27.125 C-36.7325 24.815 -36.4025 22.505 -36.0625 20.125 C-35.4025 20.125 -34.7425 20.125 -34.0625 20.125 C-33.876875 19.444375 -33.69125 18.76375 -33.5 18.0625 C-29.52739515 9.94456834 -21.11890176 4.64967577 -13.0625 1.125 C-8.67102567 0.20672585 -4.48058634 -0.009751 0 0 Z " fill="#FFB515" transform="translate(951.0625,167.875)"/>
<path d="M0 0 C0 0.66 0 1.32 0 2 C1.36125 2.0928125 1.36125 2.0928125 2.75 2.1875 C6.76881884 3.19220471 7.6763194 4.68045629 10 8 C10.99 8.495 10.99 8.495 12 9 C12.6328125 11.28515625 12.6328125 11.28515625 13.125 14.0625 C13.29257813 14.98160156 13.46015625 15.90070313 13.6328125 16.84765625 C13.75398438 17.55792969 13.87515625 18.26820313 14 19 C14.66 19 15.32 19 16 19 C17.15326328 26.31065166 17.1276612 33.51654294 17.09765625 40.90625 C17.09578772 42.24003038 17.09436587 43.57381146 17.09336853 44.90759277 C17.0895776 48.39276067 17.07977715 51.8778859 17.06866455 55.36303711 C17.05837623 58.92951877 17.05380005 62.49600762 17.04882812 66.0625 C17.03868393 73.04170416 17.01910367 80.02079166 17 87 C8.42 87 -0.16 87 -9 87 C-9.04898437 82.87113281 -9.09796875 78.74226563 -9.1484375 74.48828125 C-9.19299541 71.18974745 -9.23948992 67.89125356 -9.28729248 64.59276581 C-9.33717188 61.11437349 -9.38366278 57.63601242 -9.421875 54.1574707 C-9.46590781 50.16338184 -9.52552492 46.16965619 -9.5859375 42.17578125 C-9.59748871 40.93290848 -9.60903992 39.69003571 -9.62094116 38.40950012 C-9.64081085 37.24867416 -9.66068054 36.08784821 -9.68115234 34.8918457 C-9.69447601 33.87258499 -9.70779968 32.85332428 -9.7215271 31.80317688 C-10.01622799 28.83664507 -10.6614833 26.65779345 -12 24 C-14.68826826 22.65586587 -16.81235402 22.86760137 -19.8125 22.875 C-20.85019531 22.87242187 -21.88789062 22.86984375 -22.95703125 22.8671875 C-25.75342942 22.98923825 -28.27939879 23.36636645 -31 24 C-31 24.66 -31 25.32 -31 26 C-31.99 26.66 -32.98 27.32 -34 28 C-34.4779392 30.58216021 -34.4779392 30.58216021 -34.43237305 33.64306641 C-34.45216721 34.82413971 -34.47196136 36.00521301 -34.49235535 37.22207642 C-34.49874527 38.50230682 -34.50513519 39.78253723 -34.51171875 41.1015625 C-34.52966995 42.40829926 -34.54762115 43.71503601 -34.56611633 45.06137085 C-34.61369103 48.53669199 -34.6434515 52.01194789 -34.66955566 55.48748779 C-34.69932393 59.03345542 -34.74570454 62.57920253 -34.79101562 66.125 C-34.87870881 73.08335207 -34.93858608 80.04116712 -35 87 C-43.58 87 -52.16 87 -61 87 C-61 58.62 -61 30.24 -61 1 C-54.07 1 -47.14 1 -40 1 C-39 2 -39 2 -38.90234375 4.06640625 C-38.91394531 4.89011719 -38.92554688 5.71382812 -38.9375 6.5625 C-38.94652344 7.38878906 -38.95554687 8.21507812 -38.96484375 9.06640625 C-38.97644531 9.70449219 -38.98804688 10.34257812 -39 11 C-36.12023305 9.34195236 -33.44322421 7.58229773 -30.8125 5.5625 C-21.25668357 -1.23366255 -11.3712706 -2.54766172 0 0 Z " fill="#FFB516" transform="translate(1061,169)"/>
<path d="M0 0 C23.43 0 46.86 0 71 0 C71 6.93 71 13.86 71 21 C55.82 21 40.64 21 25 21 C25 29.58 25 38.16 25 47 C38.2 47 51.4 47 65 47 C65 53.93 65 60.86 65 68 C51.8 68 38.6 68 25 68 C25 82.52 25 97.04 25 112 C16.75 112 8.5 112 0 112 C0 75.04 0 38.08 0 0 Z " fill="#F1742C" transform="translate(248,144)"/>
<path d="M0 0 C1.28307541 -0.00274933 2.56615082 -0.00549866 3.8881073 -0.0083313 C5.3128824 -0.00125298 6.73765656 0.00601664 8.16242981 0.01345825 C9.66039014 0.0140223 11.15835103 0.01370593 12.65631104 0.01257324 C16.72629978 0.01199848 20.79617109 0.02377269 24.8661325 0.03772116 C29.11823799 0.05020801 33.37034605 0.0513974 37.62246704 0.05377197 C45.67598412 0.05999276 53.72944701 0.07641168 61.78294021 0.09647095 C70.95090513 0.11881132 80.11887261 0.12981869 89.28685796 0.13986182 C108.14751226 0.16077739 127.0081161 0.195965 145.86872864 0.24050903 C147.22573511 2.95452197 146.98111474 5.0889722 146.96638489 8.12332153 C146.96316223 9.2899231 146.95993958 10.45652466 146.95661926 11.65847778 C146.94824036 12.8817981 146.93986145 14.10511841 146.93122864 15.36550903 C146.92671692 16.59656372 146.9222052 17.82761841 146.91755676 19.09597778 C146.90574194 22.14420295 146.88926891 25.19233217 146.86872864 28.24050903 C144.11469647 29.61752511 141.91002825 29.36645939 138.82647705 29.36749268 C137.53780731 29.3703125 136.24913757 29.37313232 134.92141724 29.3760376 C133.48515306 29.37409312 132.04888902 29.37204494 130.61262512 29.36990356 C129.10658221 29.37125793 127.60053963 29.37303807 126.09449768 29.37521362 C121.99756397 29.37978332 117.90065536 29.37800039 113.80372119 29.37483454 C109.52404381 29.37230902 105.24436863 29.37464897 100.96469116 29.3762207 C93.77783318 29.37804164 86.59098546 29.37563787 79.40412903 29.37088013 C71.08348946 29.36543559 62.76287439 29.36720186 54.44223541 29.37270653 C47.30932767 29.37723736 40.17642732 29.37788842 33.0435186 29.37526786 C28.7784431 29.37370519 24.51337914 29.37351111 20.24830437 29.37680435 C16.24041465 29.37968269 12.23255668 29.37770807 8.22467041 29.3719101 C6.74959936 29.37058238 5.27452566 29.3709768 3.79945564 29.37317276 C1.79430356 29.37588375 -0.21085433 29.3718899 -2.21600342 29.36749268 C-3.90313619 29.36692714 -3.90313619 29.36692714 -5.62435246 29.36635017 C-8.13127136 29.24050903 -8.13127136 29.24050903 -9.13127136 28.24050903 C-9.41233621 23.93468078 -9.3630788 19.61691956 -9.38127136 15.30300903 C-9.40189636 14.08420044 -9.42252136 12.86539185 -9.44377136 11.60964966 C-9.44892761 10.44755981 -9.45408386 9.28546997 -9.45939636 8.08816528 C-9.46874207 7.01574585 -9.47808777 5.94332642 -9.48771667 4.83840942 C-9.37008972 3.98110229 -9.25246277 3.12379517 -9.13127136 2.24050903 C-5.60315611 -0.1115678 -4.17661961 -0.00688643 0 0 Z " fill="#F1742B" transform="translate(24.131271362304688,159.75949096679688)"/>
<path d="M0 0 C2.68359375 1.40625 2.68359375 1.40625 5 3 C5.99 3.66 6.98 4.32 8 5 C8.32946785 7.69627293 8.46803254 10.15820276 8.46875 12.859375 C8.48017029 14.03237152 8.48017029 14.03237152 8.49182129 15.22906494 C8.50263814 16.88672696 8.50546895 18.54445722 8.50097656 20.20214844 C8.50000878 22.72708757 8.54150952 25.24894122 8.5859375 27.7734375 C8.59114814 29.38541035 8.59383263 30.99739373 8.59375 32.609375 C8.6183429 33.73469635 8.6183429 33.73469635 8.64343262 34.88275146 C8.56938319 40.56324022 7.04382505 43.01541957 3 47 C-1.41249022 49.77356528 -6.96036971 49.90414584 -12 49 C-16.67073589 46.39934817 -19.55620414 42.69676111 -22 38 C-22.60741031 33.72573989 -22.46371168 29.4380129 -22.4375 25.125 C-22.4674707 23.38669922 -22.4674707 23.38669922 -22.49804688 21.61328125 C-22.49308532 12.93056196 -21.14654622 8.69719181 -15.5 2.0625 C-11.12059753 -1.3312569 -5.22386065 -0.84369216 0 0 Z " fill="#FEF6F2" transform="translate(557,189)"/>
<path d="M0 0 C0 0.66 0 1.32 0 2 C0.66 2 1.32 2 2 2 C6.61767411 7.33918569 8.29523481 10.67513529 8.125 17.6875 C8.11597656 18.38939453 8.10695312 19.09128906 8.09765625 19.81445312 C8.07413704 21.54311525 8.03826713 23.27160145 8 25 C7.34 25 6.68 25 6 25 C5.7215625 26.051875 5.7215625 26.051875 5.4375 27.125 C3.48827039 31.02345922 0.65206981 33.63306834 -3 36 C-3.99 36 -4.98 36 -6 36 C-6 36.66 -6 37.32 -6 38 C-12.74186768 38.32916895 -18.11600898 38.53039461 -24 35 C-26.04298345 33.09737419 -27.39371839 31.33640961 -29 29 C-29 28.01 -29 27.02 -29 26 C-29.66 26 -30.32 26 -31 26 C-31.93619813 22.84493858 -32.1057123 20.03413498 -32.0625 16.75 C-32.05347656 15.85796875 -32.04445313 14.9659375 -32.03515625 14.046875 C-32.02355469 13.37140625 -32.01195313 12.6959375 -32 12 C-31.34 12 -30.68 12 -30 12 C-29.938125 11.13375 -29.87625 10.2675 -29.8125 9.375 C-28.8255722 5.27545373 -27.25680401 2.61624777 -24 0 C-15.57418349 -4.21290825 -8.4634639 -3.56356375 0 0 Z " fill="#F59008" transform="translate(153,238)"/>
<path d="M0 0 C4.67904733 0.74453146 7.15524044 2.80980869 10.01953125 6.48046875 C15.81585802 15.56138069 14.8875919 28.20613516 13.01953125 38.48046875 C12.35953125 38.48046875 11.69953125 38.48046875 11.01953125 38.48046875 C10.71015625 40.12015625 10.71015625 40.12015625 10.39453125 41.79296875 C9.01953125 45.48046875 9.01953125 45.48046875 6.58203125 47.41796875 C1.2441312 49.00997403 -4.66884692 49.98271656 -9.91796875 47.6015625 C-14.56025609 44.08502984 -16.426223 39.23245285 -17.54296875 33.6875 C-18.70400036 25.17672368 -18.60504942 16.68228333 -15.98046875 8.48046875 C-15.32046875 8.48046875 -14.66046875 8.48046875 -13.98046875 8.48046875 C-13.71234375 7.71734375 -13.44421875 6.95421875 -13.16796875 6.16796875 C-10.31755849 -0.28295972 -6.62652775 -0.16826733 0 0 Z " fill="#FEF9F7" transform="translate(459.98046875,188.51953125)"/>
<path d="M0 0 C0 0.66 0 1.32 0 2 C0.556875 2.20625 1.11375 2.4125 1.6875 2.625 C5.7748058 5.05528993 8.50461882 8.51385646 10 13 C10.1190686 14.78879802 10.17522113 16.5822856 10.1875 18.375 C10.20167969 19.31085938 10.21585938 20.24671875 10.23046875 21.2109375 C9.98668108 24.16118154 9.23112508 26.32364112 8 29 C7.34 29 6.68 29 6 29 C5.773125 29.5775 5.54625 30.155 5.3125 30.75 C3.39735498 34.03310575 0.82805459 36.40364104 -2.83203125 37.59765625 C-9.93807429 38.91643541 -16.75518775 38.74688735 -23 35 C-26.87248843 31.30903447 -28.89946001 28.03418119 -29.16796875 22.6015625 C-29.17763672 20.63316406 -29.17763672 20.63316406 -29.1875 18.625 C-29.20167969 17.31789062 -29.21585938 16.01078125 -29.23046875 14.6640625 C-28.85515685 8.69723945 -26.95682894 5.30316333 -22.69921875 1.29296875 C-16.22138048 -3.63614497 -7.13582015 -2.85432806 0 0 Z " fill="#F59007" transform="translate(54,237)"/>
<path d="M0 0 C3.125 2.375 3.125 2.375 5 5 C5.66 5.66 6.32 6.32 7 7 C9.71625912 12.26689269 10.49014556 16.4260994 10.375 22.3125 C10.3608606 23.42963379 10.3608606 23.42963379 10.34643555 24.56933594 C10.14527912 31.94560589 9.34995786 38.24882982 4.4375 44 C3.633125 44.66 2.82875 45.32 2 46 C1.34 46.66 0.68 47.32 0 48 C-4.7612014 48.59035831 -9.4121552 48.57432684 -13.9375 46.9375 C-18.25952 42.87742061 -20.75261486 37.73780244 -21.14526367 31.80517578 C-21.16989617 29.24498486 -21.18565273 26.68531819 -21.1875 24.125 C-21.19974609 23.23941406 -21.21199219 22.35382813 -21.22460938 21.44140625 C-21.2403315 14.40837403 -20.14085606 8.86621275 -16 3 C-15.34 3 -14.68 3 -14 3 C-14 2.34 -14 1.68 -14 1 C-9.80922809 -1.09538596 -4.55197098 -0.5591206 0 0 Z " fill="#FEFDFB" transform="translate(372,189)"/>
<path d="M0 0 C3.95826931 -0.05880857 7.91642392 -0.09386513 11.875 -0.125 C13.53789063 -0.15013672 13.53789063 -0.15013672 15.234375 -0.17578125 C21.8889248 -0.21492566 28.63621405 -0.19282263 35 2 C36.49297212 4.98594424 36.11755228 7.70853624 36 11 C34.58147812 13.83704376 32.95634791 13.90743664 30 15 C28.95457031 15.51175781 27.90914062 16.02351563 26.83203125 16.55078125 C22.77875094 18.2951166 19.17288321 18.38101621 14.8125 18.25 C13.76545898 18.24226563 13.76545898 18.24226563 12.69726562 18.234375 C9.33821724 18.1832382 6.21192629 18.02914434 3 17 C3 16.34 3 15.68 3 15 C2.360625 14.87625 1.72125 14.7525 1.0625 14.625 C0.381875 14.41875 -0.29875 14.2125 -1 14 C-2.56820874 10.86358252 -2.38163039 7.42820517 -2 4 C-1.35888324 2.65419484 -0.69488254 1.31884816 0 0 Z " fill="#FFF9EE" transform="translate(848,259)"/>
<path d="M0 0 C4.57326744 2.76301575 4.57326744 2.76301575 5.6171875 5.7890625 C6.07152245 8.41307862 6.13224585 10.89964861 6.125 13.5625 C6.12886719 14.98755859 6.12886719 14.98755859 6.1328125 16.44140625 C5.93321748 20.28654556 5.17297838 21.80928025 2.5625 24.6875 C-0.98404026 27.52988457 -4.21509966 27.52379938 -8.6328125 27.46875 C-11.47730483 26.90548419 -12.93249589 26.01986576 -15 24 C-15 23.01 -15 22.02 -15 21 C-15.66 21 -16.32 21 -17 21 C-18.46393594 16.60819218 -18.7296794 12.5807651 -18 8 C-13.74307155 -0.27137364 -8.865722 -2.02200677 0 0 Z " fill="#FFFAF0" transform="translate(868,186)"/>
<path d="M0 0 C0.16236745 2.58585205 0.28095486 5.16151954 0.375 7.75 C0.42527344 8.47960937 0.47554687 9.20921875 0.52734375 9.9609375 C0.5859375 12.109375 0.5859375 12.109375 0 16 C-4.60869565 20 -4.60869565 20 -8 20 C-8 20.66 -8 21.32 -8 22 C-12.65389352 22.37231148 -16.18096861 22.33048635 -20.5625 20.5625 C-23.19411765 17.7959276 -23.45967745 17.13916546 -23.6875 13.5 C-23.46152508 9.87845456 -23.24360493 9.24360493 -20.5625 6.5625 C-19.716875 6.046875 -18.87125 5.53125 -18 5 C-17.67 4.34 -17.34 3.68 -17 3 C-14.73167936 2.36765486 -12.43298739 1.84226125 -10.125 1.375 C-8.86945312 1.11460937 -7.61390625 0.85421875 -6.3203125 0.5859375 C-3 0 -3 0 0 0 Z " fill="#FFFBF3" transform="translate(786,217)"/>
<path d="M0 0 C4.72415816 5.29678339 6 7.77199625 6 15 C-3.9 15 -13.8 15 -24 15 C-23 6 -23 6 -20 3 C-13.68412823 -1.27250149 -7.28527913 -2.42842638 0 0 Z " fill="#FFFBF2" transform="translate(959,189)"/>
<path d="M0 0 C8.58 0 17.16 0 26 0 C26 39.93 26 79.86 26 121 C19.07 121 12.14 121 5 121 C3 118 3 118 3 114 C2.34 113.67 1.68 113.34 1 113 C1.99 113 2.98 113 4 113 C5.4606285 115.64738916 6 116.89448334 6 120 C11.94 120 17.88 120 24 120 C24 80.73 24 41.46 24 1 C16.41 1 8.82 1 1 1 C1 11.56 1 22.12 1 33 C0.67 33 0.34 33 0 33 C0 22.11 0 11.22 0 0 Z " fill="#F49760" transform="translate(564,135)"/>
<path d="M0 0 C0.78130783 -0.00014603 1.56261566 -0.00029205 2.36759949 -0.0004425 C4.92681747 0.00024912 7.48596089 0.00800612 10.04516602 0.01586914 C11.82878072 0.01773599 13.61239595 0.01915863 15.39601135 0.02015686 C20.07308385 0.02396104 24.75012491 0.03377326 29.42718506 0.04486084 C34.2067421 0.05512023 38.98630425 0.05966416 43.76586914 0.06469727 C53.13111727 0.07539753 62.49634214 0.09244857 71.86157227 0.11352539 C71.86157227 0.77352539 71.86157227 1.43352539 71.86157227 2.11352539 C70.84759369 2.12161224 69.83361511 2.1296991 68.78890991 2.13803101 C59.2251743 2.2155729 49.66157953 2.30333253 40.09802818 2.40105247 C35.18151029 2.45096201 30.26501333 2.49729257 25.34838867 2.53540039 C20.6020694 2.57232062 15.85592752 2.61869895 11.10976028 2.6715889 C9.30054466 2.69009704 7.49129106 2.70521817 5.68201828 2.71686935 C3.14451753 2.73379314 0.60741988 2.76284276 -1.92993164 2.79467773 C-3.047715 2.79791801 -3.047715 2.79791801 -4.18807983 2.80122375 C-8.56477594 2.87120165 -12.03842191 3.6453681 -16.13842773 5.11352539 C-17.45842773 5.11352539 -18.77842773 5.11352539 -20.13842773 5.11352539 C-20.13842773 5.77352539 -20.13842773 6.43352539 -20.13842773 7.11352539 C-22.10309186 8.18127764 -24.10698133 9.17906004 -26.13842773 10.11352539 C-26.79842773 9.78352539 -27.45842773 9.45352539 -28.13842773 9.11352539 C-23.74799916 5.6889911 -20.84822323 3.53131531 -15.13842773 3.11352539 C-15.13842773 2.45352539 -15.13842773 1.79352539 -15.13842773 1.11352539 C-10.06248657 0.27712827 -5.14728793 -0.02559984 0 0 Z " fill="#FFE0A2" transform="translate(60.138427734375,107.886474609375)"/>
<path d="M0 0 C2.7708983 -0.02696009 5.5415345 -0.04681952 8.3125 -0.0625 C9.09818359 -0.07087891 9.88386719 -0.07925781 10.69335938 -0.08789062 C11.45068359 -0.09111328 12.20800781 -0.09433594 12.98828125 -0.09765625 C13.68477783 -0.10289307 14.38127441 -0.10812988 15.09887695 -0.11352539 C17 0 17 0 20 1 C22.51054905 1.1529647 24.99888525 1.25695178 27.51171875 1.31640625 C28.23994339 1.33718735 28.96816803 1.35796844 29.71846008 1.37937927 C32.04137875 1.44468746 34.36440906 1.50367237 36.6875 1.5625 C38.26368335 1.60570305 39.83985548 1.64931792 41.41601562 1.69335938 C45.27723104 1.80112368 49.138533 1.90033556 53 2 C53 8.27 53 14.54 53 21 C48.71 21 44.42 21 40 21 C40 21.99 40 22.98 40 24 C40.66 24 41.32 24 42 24 C42 28.62 42 33.24 42 38 C41.67 38 41.34 38 41 38 C40.95101562 37.20335937 40.90203125 36.40671875 40.8515625 35.5859375 C40.29970605 27.61842686 40.29970605 27.61842686 38 20 C39 19 39 19 41.94140625 18.90234375 C45.29427083 18.93489583 48.64713542 18.96744792 52 19 C52 13.72 52 8.44 52 3 C49.66421875 3.01160156 47.3284375 3.02320313 44.921875 3.03515625 C42.65478654 3.04295934 40.38769958 3.04902898 38.12060547 3.05493164 C36.54735645 3.05995437 34.97411208 3.06677375 33.40087891 3.07543945 C31.13703257 3.08759529 28.87324807 3.09324896 26.609375 3.09765625 C25.90818542 3.10281754 25.20699585 3.10797882 24.48455811 3.11329651 C21.15137418 3.11367774 18.19847703 2.93674773 15 2 C12.41343327 1.77711499 9.84047222 1.58685615 7.25 1.4375 C6.55261719 1.39431641 5.85523438 1.35113281 5.13671875 1.30664062 C3.42468078 1.20110404 1.71236439 1.1001009 0 1 C0 0.67 0 0.34 0 0 Z " fill="#FFD06A" transform="translate(854,168)"/>
<path d="M0 0 C1.29996366 3.65560251 0.66919809 6.11368494 -0.3125 9.8125 C-2.02613417 17.11131219 -3.00913164 24.56848728 -4 32 C-15.22 32 -26.44 32 -38 32 C-38.33 29.03 -38.66 26.06 -39 23 C-38.34 23 -37.68 23 -37 23 C-37 25.31 -37 27.62 -37 30 C-26.44 30 -15.88 30 -5 30 C-4.67 25.38 -4.34 20.76 -4 16 C-3.41390626 12.91323964 -2.82588547 10.00646078 -2 7 C-1.71576172 5.95972656 -1.71576172 5.95972656 -1.42578125 4.8984375 C-0.9659253 3.26121985 -0.48547383 1.62980498 0 0 Z " fill="#FFE9BB" transform="translate(720,226)"/>
<path d="M0 0 C0.33 0 0.66 0 1 0 C1.09765625 6.15234375 1.09765625 6.15234375 1 8 C0.67 8.33 0.34 8.66 0 9 C-0.63050231 12.82859235 -1.19104714 16.66007062 -1.71875 20.50390625 C-1.90050781 21.73947266 -1.90050781 21.73947266 -2.0859375 23 C-2.2413501 24.11375 -2.2413501 24.11375 -2.39990234 25.25 C-3.27325205 29.25220142 -4.70460987 33.11382961 -6 37 C-16.56 37 -27.12 37 -38 37 C-38.33 35.35 -38.66 33.7 -39 32 C-38.34 32.33 -37.68 32.66 -37 33 C-37 33.99 -37 34.98 -37 36 C-27.1 36 -17.2 36 -7 36 C-6.505 31.05 -6.505 31.05 -6 26 C-5.36348049 23.99020216 -4.69909458 21.98889698 -4 20 C-3.56914626 17.36700491 -3.18772185 14.77031923 -2.875 12.125 C-2.78863281 11.43664062 -2.70226562 10.74828125 -2.61328125 10.0390625 C-2.40340434 8.36004725 -2.20092913 6.68010952 -2 5 C-1.34 5 -0.68 5 0 5 C0 3.35 0 1.7 0 0 Z " fill="#FFC342" transform="translate(658,219)"/>
<path d="M0 0 C1.32 0 2.64 0 4 0 C4.33 5.61 4.66 11.22 5 17 C4.67 17 4.34 17 4 17 C3.34 14.03 2.68 11.06 2 8 C1.34 12.62 0.68 17.24 0 22 C-0.66 22 -1.32 22 -2 22 C-1.938125 23.5159375 -1.938125 23.5159375 -1.875 25.0625 C-2.00573843 29.18076052 -2.73250786 32.11830533 -4 36 C-5.4049404 32.10939581 -4.69513239 28.76907638 -4.0625 24.75 C-3.86785156 23.48671875 -3.67320312 22.2234375 -3.47265625 20.921875 C-3.31667969 19.95765625 -3.16070313 18.9934375 -3 18 C-2.34 18 -1.68 18 -1 18 C-0.505 9.09 -0.505 9.09 0 0 Z " fill="#FFE3A6" transform="translate(665,179)"/>
<path d="M0 0 C2.01822917 0.06510417 4.03645833 0.13020833 6.0546875 0.1953125 C6.0546875 1.8453125 6.0546875 3.4953125 6.0546875 5.1953125 C1.98099326 7.23215962 -0.53469114 7.2210384 -4.9453125 6.1953125 C-3.78219775 0.37973873 -3.78219775 0.37973873 0 0 Z " fill="#FFE2B4" transform="translate(58.9453125,120.8046875)"/>
<path d="M0 0 C0.99 0.495 0.99 0.495 2 1 C3.38993361 7.49072771 3.12647427 14.39523277 3 21 C3.66 21 4.32 21 5 21 C5.88021369 27.71162938 6.11381955 34.23405981 6 41 C5.67 41 5.34 41 5 41 C4.86722656 39.85660156 4.73445312 38.71320313 4.59765625 37.53515625 C4.4194969 36.0442438 4.24109918 34.55335982 4.0625 33.0625 C3.93198242 31.93038086 3.93198242 31.93038086 3.79882812 30.77539062 C3.65675901 27.07812542 3.65675901 27.07812542 2 24 C1.77210574 22.22309891 1.60510212 20.43830032 1.46484375 18.65234375 C1.37783203 17.57275391 1.29082031 16.49316406 1.20117188 15.38085938 C1.11416016 14.24455078 1.02714844 13.10824219 0.9375 11.9375 C0.84662109 10.79732422 0.75574219 9.65714844 0.66210938 8.48242188 C0.43735454 5.65524259 0.21684289 2.82779536 0 0 Z " fill="#FFE2A3" transform="translate(626,148)"/>
<path d="M0 0 C0.33 0 0.66 0 1 0 C1 2.31 1 4.62 1 7 C1.66 7 2.32 7 3 7 C3.66 11.29 4.32 15.58 5 20 C5.185625 17.1228125 5.185625 17.1228125 5.375 14.1875 C5.75 8.375 5.75 8.375 8 5 C7.8595017 7.7920301 7.71284617 10.58349796 7.5625 13.375 C7.50352539 14.56609375 7.50352539 14.56609375 7.44335938 15.78125 C7.11328125 21.7734375 7.11328125 21.7734375 6 24 C5.01 24 4.02 24 3 24 C2.80083984 22.60974609 2.80083984 22.60974609 2.59765625 21.19140625 C2.42105469 19.99386719 2.24445312 18.79632813 2.0625 17.5625 C1.88847656 16.36753906 1.71445312 15.17257813 1.53515625 13.94140625 C1.31014787 11.12044324 1.31014787 11.12044324 0 10 C-0.07205511 8.31391034 -0.08386068 6.62499341 -0.0625 4.9375 C-0.05347656 4.01839844 -0.04445313 3.09929687 -0.03515625 2.15234375 C-0.02355469 1.44207031 -0.01195312 0.73179687 0 0 Z " fill="#FFD273" transform="translate(693,208)"/>
<path d="M0 0 C3.375 0.3125 3.375 0.3125 7 1 C9 4 9 4 9 7 C3.58461538 7.36923077 3.58461538 7.36923077 0.625 5.5 C0.08875 5.005 -0.4475 4.51 -1 4 C-0.67 2.68 -0.34 1.36 0 0 Z " fill="#FFF3E0" transform="translate(117,121)"/>
<path d="M0 0 C1.0725 -0.01417969 2.145 -0.02835938 3.25 -0.04296875 C6 0.1875 6 0.1875 8 2.1875 C7.2265625 2.0946875 6.453125 2.001875 5.65625 1.90625 C-0.72115548 1.42910552 -0.72115548 1.42910552 -6.5078125 3.7578125 C-10.31380292 7.45144896 -12.93667259 10.87086295 -14 16.1875 C-15 14.1875 -15 14.1875 -14.25 11.375 C-13.07405318 8.37633562 -11.85643155 5.8174447 -10 3.1875 C-9.34 3.1875 -8.68 3.1875 -8 3.1875 C-8 2.5275 -8 1.8675 -8 1.1875 C-5.27457733 -0.17521133 -3.03912726 0.01826399 0 0 Z " fill="#FBD8C4" transform="translate(366,188.8125)"/>
<path d="M0 0 C0.33 0 0.66 0 1 0 C1.09765625 6.15234375 1.09765625 6.15234375 1 8 C0.67 8.33 0.34 8.66 0 9 C-0.27131745 10.3749471 -0.48984138 11.76043437 -0.68359375 13.1484375 C-0.80669922 13.98890625 -0.92980469 14.829375 -1.05664062 15.6953125 C-1.30938144 17.47357094 -1.55940743 19.25221747 -1.80664062 21.03125 C-1.99323242 22.29582031 -1.99323242 22.29582031 -2.18359375 23.5859375 C-2.34686157 24.74681885 -2.34686157 24.74681885 -2.51342773 25.93115234 C-3 28 -3 28 -5 31 C-4.68820356 28.16658768 -4.37558083 25.33327045 -4.0625 22.5 C-3.97548828 21.70851562 -3.88847656 20.91703125 -3.79882812 20.1015625 C-3.24115491 15.06184897 -2.64027388 10.02989934 -2 5 C-1.34 5 -0.68 5 0 5 C0 3.35 0 1.7 0 0 Z " fill="#FFDD94" transform="translate(658,219)"/>
<path d="M0 0 C0.33 0 0.66 0 1 0 C1.17069867 5.03561089 1.07470484 8.36242448 -1 13 C-1.37593066 14.9924325 -1.71979545 16.9918674 -2 19 C-2.66 19 -3.32 19 -4 19 C-4.33 15.37 -4.66 11.74 -5 8 C-4.01 7.67 -3.02 7.34 -2 7 C-0.77030122 3.48809191 -0.77030122 3.48809191 0 0 Z " fill="#FFE4AA" transform="translate(641,212)"/>
<path d="M0 0 C0.66 0.33 1.32 0.66 2 1 C1.67 2.32 1.34 3.64 1 5 C-1.64 5 -4.28 5 -7 5 C-7.33 3.68 -7.66 2.36 -8 1 C-5.26094655 -0.36952673 -3.02912668 -0.12621361 0 0 Z " fill="#FFF8EC" transform="translate(95,120)"/>
<path d="M0 0 C2.4294516 3.6441774 2.16179575 5.71241272 2 10 C2.66 10 3.32 10 4 10 C4.33 15.61 4.66 21.22 5 27 C4.67 27 4.34 27 4 27 C3.86722656 26.21753906 3.73445312 25.43507812 3.59765625 24.62890625 C3.42105469 23.61699219 3.24445312 22.60507813 3.0625 21.5625 C2.88847656 20.55316406 2.71445312 19.54382813 2.53515625 18.50390625 C2.25248903 16.0712562 2.25248903 16.0712562 1 15 C0.76346477 12.47403741 0.57826308 9.96892793 0.4375 7.4375 C0.39431641 6.72658203 0.35113281 6.01566406 0.30664062 5.28320312 C0.20028223 3.52238088 0.09961154 1.7612168 0 0 Z " fill="#FFD680" transform="translate(610,203)"/>
<path d="M0 0 C0.33 0 0.66 0 1 0 C2.81797654 5.62961642 3.57950105 11.0577367 4.125 16.9375 C4.25455078 18.24944336 4.25455078 18.24944336 4.38671875 19.58789062 C4.59689697 21.72470254 4.79925518 23.86228122 5 26 C4.34 26 3.68 26 3 26 C2.86722656 24.92878906 2.73445312 23.85757813 2.59765625 22.75390625 C2.4194944 21.35674231 2.24109681 19.95960841 2.0625 18.5625 C1.97548828 17.85544922 1.88847656 17.14839844 1.79882812 16.41992188 C1.61783809 12.91182032 1.61783809 12.91182032 0 10 C-0.07205511 8.31391034 -0.08386068 6.62499341 -0.0625 4.9375 C-0.05347656 4.01839844 -0.04445313 3.09929687 -0.03515625 2.15234375 C-0.02355469 1.44207031 -0.01195312 0.73179687 0 0 Z " fill="#FFE1A1" transform="translate(615,230)"/>
<path d="M0 0 C1.31529852 3.68107036 0.66004561 6.2086403 -0.3125 9.9375 C-1.95460965 16.58126472 -3.05753726 23.22535608 -4 30 C-4.33 30 -4.66 30 -5 30 C-4.57640316 22.16345846 -4.08376467 14.58550303 -2 7 C-1.81050781 6.30648437 -1.62101563 5.61296875 -1.42578125 4.8984375 C-0.9659253 3.26121985 -0.48547383 1.62980498 0 0 Z " fill="#FFD06C" transform="translate(720,226)"/>
<path d="M0 0 C0 0.66 0 1.32 0 2 C-0.99 2.33 -1.98 2.66 -3 3 C-4.84399021 4.9466718 -6.49469912 7.00800719 -8.18359375 9.08984375 C-10.02321723 11.02441554 -11.55756696 11.97471492 -14 13 C-12.63924722 7.3868948 -8.37378806 4.38968575 -4 1 C-2 0 -2 0 0 0 Z " fill="#F49761" transform="translate(530,172)"/>
<path d="M0 0 C0.99 0 1.98 0 3 0 C4.4606285 2.64738916 5 3.89448334 5 7 C11.27 7 17.54 7 24 7 C24 7.33 24 7.66 24 8 C20.70849875 8.08685287 17.4172904 8.14033895 14.125 8.1875 C13.18785156 8.21263672 12.25070312 8.23777344 11.28515625 8.26367188 C9.94130859 8.27817383 9.94130859 8.27817383 8.5703125 8.29296875 C7.74289551 8.3086792 6.91547852 8.32438965 6.06298828 8.34057617 C5.38220215 8.22818604 4.70141602 8.1157959 4 8 C2 5 2 5 2 1 C1.34 0.67 0.68 0.34 0 0 Z " fill="#F4955E" transform="translate(565,248)"/>
<path d="M0 0 C1.32 0 2.64 0 4 0 C4.33 5.61 4.66 11.22 5 17 C4.67 17 4.34 17 4 17 C3.34 12.38 2.68 7.76 2 3 C1.34 4.32 0.68 5.64 0 7 C0 4.69 0 2.38 0 0 Z " fill="#FFD270" transform="translate(665,179)"/>
<path d="M0 0 C0 0.66 0 1.32 0 2 C-0.99 2.33 -1.98 2.66 -3 3 C-4.81501254 4.82847958 -4.81501254 4.82847958 -6.5625 7 C-9.80152672 10.90076336 -9.80152672 10.90076336 -12 12 C-10.40261891 6.9174238 -5.94094179 0 0 0 Z " fill="#FFC23F" transform="translate(754,209)"/>
<path d="M0 0 C0.33 0 0.66 0 1 0 C3.1583195 6.07027358 3.20852314 11.59370576 3 18 C0.06552643 15.06552643 0.53841577 11.81740544 0.375 7.875 C0.33632813 7.12089844 0.29765625 6.36679688 0.2578125 5.58984375 C0.16348969 3.72696816 0.08065338 1.86351745 0 0 Z " fill="#FFD376" transform="translate(604,168)"/>
<path d="M0 0 C-0.33 1.32 -0.66 2.64 -1 4 C-3.31 4 -5.62 4 -8 4 C-8 3.01 -8 2.02 -8 1 C-5.10765685 0.17361624 -3.11257569 0 0 0 Z " fill="#FFFCF8" transform="translate(64,122)"/>
<path d="M0 0 C0.99 0.33 1.98 0.66 3 1 C0.69 3.31 -1.62 5.62 -4 8 C-4.66 7.67 -5.32 7.34 -6 7 C-4.19587357 3.73539027 -3.16605307 2.11070205 0 0 Z " fill="#FFC343" transform="translate(832,256)"/>
<path d="M0 0 C0.33 0 0.66 0 1 0 C1 1.65 1 3.3 1 5 C1.66 5 2.32 5 3 5 C3.33 7.97 3.66 10.94 4 14 C1.46663323 11.46663323 0.09955415 9.62397714 -0.125 5.9609375 C-0.125 3.97352151 -0.06621043 1.98631279 0 0 Z " fill="#F6AE84" transform="translate(509,224)"/>
<path d="M0 0 C0.33 0.66 0.66 1.32 1 2 C-3.77357872 4.71391278 -7.34388537 6.56561146 -13 6 C-11.68 5.67 -10.36 5.34 -9 5 C-9 4.34 -9 3.68 -9 3 C-6.03 2.01 -3.06 1.02 0 0 Z " fill="#FFD376" transform="translate(885,222)"/>
<path d="M0 0 C0.625 1.8125 0.625 1.8125 1 4 C0.01 5.485 0.01 5.485 -1 7 C-1.39013716 8.9896995 -1.73202649 10.99019869 -2 13 C-2.33 13 -2.66 13 -3 13 C-3.125 5.375 -3.125 5.375 -2 2 C-1.34 2 -0.68 2 0 2 C0 1.34 0 0.68 0 0 Z " fill="#FFD296" transform="translate(115,240)"/>
<path d="M0 0 C0.33 0 0.66 0 1 0 C1.16682272 4.92127034 1.24828052 8.50343896 -1 13 C-1.33 13 -1.66 13 -2 13 C-2 10.36 -2 7.72 -2 5 C-1.34 5 -0.68 5 0 5 C0 3.35 0 1.7 0 0 Z " fill="#FFCC5E" transform="translate(658,219)"/>
</svg>
